PathFileType	4	(X/Y/Z)	Run_300 01
DataRate	CameraRate	NumFrames	NumMarkers	Units	OrigDataRate	OrigDataStartFrame	OrigNumFrames
100	100	7	42	mm	100	182	128
Frame#	Time	LASI			RASI			LPSI			RPSI			RTH1			RTH2			RTH3			LTH1			LTH2			LTH3			RTB1			RTB2			RTB3			LTB1			LTB2			LTB3			RCAL			RTOE			RMT5			LCAL			LTOE			LACR			RACR			CLAV			C7			RUA1			RUA2			RUA3			RLEL			RMEL			LUA1			LUA2			LUA3			LLEL			LMEL			RFAsuperior			RFAradius			RFAulna			LFAsuperior			LFAradius			LFAulna			LMT5			
		X1	Y1	Z1	X2	Y2	Z2	X3	Y3	Z3	X4	Y4	Z4	X5	Y5	Z5	X6	Y6	Z6	X7	Y7	Z7	X8	Y8	Z8	X9	Y9	Z9	X10	Y10	Z10	X11	Y11	Z11	X12	Y12	Z12	X13	Y13	Z13	X14	Y14	Z14	X15	Y15	Z15	X16	Y16	Z16	X17	Y17	Z17	X18	Y18	Z18	X19	Y19	Z19	X20	Y20	Z20	X21	Y21	Z21	X22	Y22	Z22	X23	Y23	Z23	X24	Y24	Z24	X25	Y25	Z25	X26	Y26	Z26	X27	Y27	Z27	X28	Y28	Z28	X29	Y29	Z29	X30	Y30	Z30	X31	Y31	Z31	X32	Y32	Z32	X33	Y33	Z33	X34	Y34	Z34	X35	Y35	Z35	X36	Y36	Z36	X37	Y37	Z37	X38	Y38	Z38	X39	Y39	Z39	X40	Y40	Z40	X41	Y41	Z41	X42	Y42	Z42	

176	2.18	688.464739	971.59665	-480.835139	704.077669	965.303898	-231.196687	509.991153	1058.51471	-382.602491	519.469768	1048.791116	-299.662737	655.278504	834.037926	-167.335313	714.629107	701.4116320000001	-179.678351	649.789793	593.567195	-190.762413	633.232538	870.611303	-539.8204469999999	723.806736	768.475001	-521.866205	678.199166	621.746057	-504.684046	565.7535339999999	404.395717	-250.374304	455.3801	423.840971	-206.043711	370.140729	374.13004	-270.221018	741.65959	398.699723	-432.26004	662.978916	332.715782	-490.36977	665.768363	207.956157	-404.548084	215.136862	466.775025	-298.078185	251.748407	237.186703	-285.688617	209.057316	262.42677	-204.107981	499.673161	90.493534	-366.517483	735.119498	69.902717	-401.066773	686.517682	1491.545176	-545.766854	684.724051	1492.71626	-203.568072	763.210775	1445.578659	-348.43279	628.398915	1526.412734	-393.214015	619.521474	1392.165954	-117.240204	536.420511	1326.218771	-136.386339	572.970177	1284.796133	-81.756027	546.031913	1194.157634	-51.2115	509.940274	1178.62917	-122.654935	622.189494	1400.847545	-643.987301	543.897399	1335.029336	-634.9604869999999	581.871086	1299.412642	-697.204578	566.687412	1219.444899	-735.689449	507.789464	1197.832045	-687.574569	590.759054	1124.588198	-51.163799	749.5993570000001	1016.112603	-126.190016	698.2952320000001	974.787075	-99.38145799999999	644.320026	1133.264495	-684.670793	735.299616	1097.23728	-560.924678	704.4126	1043.450234	-588.940637	688.6152	47.150725	-479.294743	
177	2.19	686.140551	970.811416	-481.628461	701.406132	960.07385	-229.757895	507.808771	1057.660776	-383.051811	516.31792	1047.573808	-300.361973	655.49293	832.439026	-167.410514	723.917903	703.598333	-179.914475	666.083929	593.659182	-189.611862	627.973259	868.349456	-539.8790770000001	716.8392270000001	764.953888	-521.556944	668.583965	618.257009	-506.026886	587.753479	405.905209	-251.720635	477.92539	423.238346	-206.029863	392.334012	374.727555	-270.552122	724.51653	393.076417	-432.829387	643.296477	330.251968	-491.436869	640.558641	205.758969	-405.084122	234.946673	465.872749	-295.109661	277.475072	237.189441	-287.403458	236.143744	260.203048	-203.802662	470.194918	92.702338	-367.037506	704.970452	69.231011	-401.486784	689.431335	1485.777882	-547.756624	682.692012	1489.723668	-205.296018	763.009737	1441.495191	-348.794228	629.407723	1523.542711	-396.009595	615.448986	1390.534286	-118.808761	531.9334	1324.944596	-139.671163	566.295155	1284.268539	-83.352591	537.991901	1193.838672	-51.896604	503.790429	1177.772001	-124.006604	629.164529	1392.214037	-645.690208	552.648477	1322.931662	-638.032904	594.01819	1288.811434	-699.376933	583.5626569999999	1207.73955	-737.251359	524.0673860000001	1184.787025	-690.416327	580.1972	1122.619358	-49.010175	734.864199	1004.617952	-117.605588	681.506037	966.174522	-90.76094999999999	661.8925860000001	1124.341595	-682.779332	749.316835	1091.856345	-556.42387	720.942345	1036.755711	-585.347784	658.149634	46.752401	-479.746797	
178	2.2	684.263365	970.635464	-482.501348	698.8015830000001	957.039254	-228.540782	506.078433	1057.46026	-383.643573	513.295598	1047.350162	-300.873541	654.006834	832.048657	-166.621647	733.32357	707.770036	-181.099434	682.305665	596.1112869999999	-189.056977	622.532696	866.806456	-539.836168	709.95308	762.721583	-521.396158	657.476528	615.8000070000001	-507.657285	610.326505	408.877479	-253.853475	500.863642	422.659524	-206.410754	415.53701	373.850375	-270.800618	705.3861879999999	388.400299	-433.898263	621.850093	328.5689	-492.723791	614.39868	204.314465	-406.021152	254.672966	462.066134	-292.055691	305.383558	234.915242	-289.34147	264.973719	255.177826	-203.913299	440.51864	95.299626	-368.2696	674.553598	68.920666	-402.209132	692.731818	1481.693479	-549.087698	681.009203	1488.258308	-206.668772	762.726029	1438.883751	-349.089347	630.217257	1522.021641	-398.222539	611.615716	1390.607638	-119.995276	527.716667	1325.581839	-142.259748	559.909271	1285.512289	-84.66245000000001	529.941265	1195.889503	-52.168678	497.211373	1179.300991	-124.795143	636.223384	1385.905905	-646.617621	562.01579	1312.605069	-638.890282	606.33671	1280.849126	-700.6701399999999	600.762505	1198.765342	-737.9815579999999	540.674244	1174.4768	-692.413249	569.5473	1123.315633	-46.626195	719.337712	995.841458	-109.615864	663.93101	960.7256190000001	-82.333347	679.8835	1118.228149	-679.880333	763.290669	1089.654075	-550.536778	738.120974	1033.424153	-580.41039	627.570451	46.464231	-480.510437	
179	2.21	682.385749	971.4154140000001	-483.428329	696.137176	956.8641239999999	-228.419727	504.329831	1058.209057	-384.220933	510.597512	1048.087981	-301.312065	651.9489589999999	832.914257	-165.802403	741.916343	714.365245	-182.592507	697.861519	601.066782	-189.094529	617.374362	866.578368	-540.185516	702.671299	760.793984	-522.007823	644.420892	614.373949	-509.048046	633.009511	413.181036	-256.47186	523.810572	422.271066	-207.176906	439.965434	371.333978	-271.171562	684.812426	385.055465	-435.357087	599.379064	327.950739	-494.027195	588.04556	203.955354	-407.180746	274.268121	455.20455	-289.326752	335.257464	230.482749	-291.15918	295.21243	247.712269	-204.513566	411.240904	98.905601	-369.665229	644.442438	68.679461	-403.207215	696.2701939999999	1479.556304	-549.767282	679.555907	1488.455599	-207.622277	762.584312	1437.733929	-348.885751	630.770217	1521.754515	-399.884324	607.682223	1392.648032	-120.747864	523.625127	1328.118226	-144.213372	553.668504	1288.726598	-85.46569	521.771757	1200.331663	-51.95524	490.027905	1183.304068	-124.84956	643.707455	1381.889034	-647.18666	571.870535	1304.897543	-638.845648	618.674678	1275.523371	-701.189016	617.7229610000001	1192.687753	-737.8070750000001	557.042728	1167.067044	-693.49783	558.651305	1126.619796	-44.064184	703.390981	990.4654	-102.221454	646.074577	958.867933	-74.354291	697.743532	1115.166141	-676.122656	777.018496	1091.062429	-543.514741	755.512725	1033.867614	-574.0018209999999	597.267431	46.195713	-481.467615	
180	2.22	680.576686	973.49617	-484.569051	693.432359	959.775138	-229.288133	502.620293	1060.155652	-384.806925	508.384318	1050.190321	-301.857177	650.8168439999999	835.416769	-166.237559	749.241823	723.392536	-183.872259	712.290984	608.553709	-189.691879	612.824788	867.88163	-540.925684	694.480826	758.825011	-523.067188	629.8791	614.14858	-510.166031	655.35212	418.621223	-259.246089	546.408494	422.26363	-208.266241	465.524736	367.659483	-272.023446	663.2564190000001	383.203242	-437.058853	576.132416	328.741218	-495.262712	561.681237	204.902515	-408.514069	293.683411	445.200163	-287.213121	367.055676	224.189354	-292.763014	326.986211	238.144855	-205.626461	382.444281	103.850383	-370.896352	614.5636040000001	68.403159	-404.278063	699.89616	1479.565119	-549.8103149999999	678.184384	1490.39305	-208.13828	762.61223	1438.258712	-348.034384	631.308464	1522.938154	-400.991051	603.582079	1396.787359	-121.055374	519.4888130000001	1332.631189	-145.869191	547.2873090000001	1294.112977	-85.731934	513.328001	1207.041248	-51.270581	482.330093	1189.701399	-124.283222	651.950252	1380.258393	-647.4280230000001	581.924054	1300.804229	-639.603644	630.969091	1272.746539	-700.901898	634.0907999999999	1189.463991	-736.621321	572.8109009999999	1162.507771	-693.574327	547.40419	1132.296918	-41.39342	687.431448	988.8830400000001	-95.26566200000001	628.534843	960.60564	-67.02503299999999	715.105817	1115.37361	-671.561022	790.431431	1096.111119	-535.792499	772.927963	1037.98691	-566.438233	567.086124	45.878724	-482.26515	
181	2.23	679.245279	976.814722	-485.944022	690.931102	965.526168	-230.161108	501.400157	1063.252715	-385.576953	506.691065	1053.876521	-302.52798	651.526104	839.939401	-168.091713	755.694184	734.161919	-184.959016	725.278859	618.155489	-190.881871	608.855903	870.468086	-541.688068	685.292604	757.310772	-524.063085	614.58277	615.43258	-511.151385	676.957737	424.954551	-261.889817	568.327522	422.70534	-209.597142	491.443266	363.715849	-273.542377	641.0781040000001	383.05223	-439.02361	552.067778	331.19128	-496.437499	535.2488980000001	207.206638	-410.104472	312.971968	432.081567	-285.931041	400.75367	216.466084	-294.20522	360.550895	226.866154	-207.185147	354.129803	110.127477	-372.094606	584.6505100000001	68.126727	-405.216388	703.491215	1481.837993	-549.2868559999999	676.763627	1494.017145	-208.210456	762.69031	1440.729124	-346.656712	632.041862	1525.781877	-401.506395	599.394576	1402.852425	-121.031396	515.198115	1339.121068	-147.480151	540.6263269999999	1301.681517	-85.59113600000001	504.584684	1215.79219	-50.205887	474.36318	1198.279301	-123.370456	660.8366	1381.099373	-647.041425	591.760847	1300.562221	-641.754129	643.128345	1272.408568	-699.650612	649.602044	1188.947222	-734.396765	587.714822	1160.650552	-692.617663	535.953519	1140.07531	-38.739673	671.902548	991.011296	-88.756376	611.840778	965.590317	-60.508596	731.696385	1118.932397	-666.224344	803.358774	1104.549937	-527.7579899999999	790.204803	1045.427263	-558.341907	536.765619	45.515618	-482.654009	
182	2.24	678.561544	980.973217	-487.06165	688.972662	973.506195	-230.260691	500.933838	1067.349084	-386.54951	505.56583	1059.082083	-303.18119	653.878979	846.608881	-170.037393	761.851311	745.8400789999999	-186.192384	736.6171399999999	629.121276	-192.665258	605.118509	873.982827	-542.1063349999999	675.469321	757.016133	-524.873766	598.924894	618.461203	-511.925329	697.533921	431.909023	-264.246973	589.348896	423.397173	-211.12961	516.664849	360.065443	-275.600319	618.5708990000001	384.923756	-441.37976	527.355152	335.386372	-497.604536	508.961366	210.865046	-412.153332	332.440814	416.04704	-285.62321	436.207733	207.759868	-295.635535	395.929844	214.394339	-209.067127	326.559456	117.619883	-373.671482	554.640305	67.889509	-405.908591	706.997061	1486.350244	-548.279187	675.2455619999999	1499.151895	-207.876344	762.7138179999999	1445.18768	-344.934947	632.946353	1530.246473	-401.45957	595.16198	1410.467716	-120.860413	510.71116	1347.421027	-148.988276	533.865261	1311.190899	-85.189014	495.735016	1226.27383	-48.951457	466.355562	1208.716164	-122.376768	669.801608	1384.343248	-645.813001	601.075064	1303.457029	-644.448567	655.015913	1274.390739	-697.381975	663.987852	1190.928669	-731.274961	601.502991	1161.296585	-690.7642970000001	524.707374	1149.709878	-36.279298	657.2189499999999	996.3636320000001	-82.881291	596.33898	973.289429	-54.899213	747.183929	1125.579061	-660.234152	815.46262	1115.992365	-519.649643	806.878372	1055.822411	-550.197356	506.292778	45.194375	-482.696342	
